<svg width="778" height="900" viewBox="0 0 778 900" fill="none" xmlns="http://www.w3.org/2000/svg">
<g opacity="0.05" clip-path="url(#clip0_1_5241)">
<path d="M736.484 560.162L880.095 643.495V641.413L736.484 558.055V560.162Z" fill="#FF014F"/>
<path d="M736.484 541.632L880.095 624.964V622.883L736.484 539.551V541.632Z" fill="#FF014F"/>
<path d="M736.484 523.113L880.095 606.471V604.364L736.484 521.031V523.113Z" fill="#FF014F"/>
<path d="M736.484 504.593L880.095 587.952V585.844L736.484 502.512V504.593Z" fill="#FF014F"/>
<path d="M736.484 486.1L880.095 569.432V567.325L736.484 483.992V486.1Z" fill="#FF014F"/>
<path d="M736.484 467.576L880.095 550.909V548.801L736.484 465.469V467.576Z" fill="#FF014F"/>
<path d="M736.484 449.053L880.095 532.385V530.278L736.484 446.945V449.053Z" fill="#FF014F"/>
<path d="M736.484 430.533L880.095 513.866V511.784L736.484 428.426V430.533Z" fill="#FF014F"/>
<path d="M736.484 412.014L880.095 495.346V493.265L736.484 409.906V412.014Z" fill="#FF014F"/>
<path d="M449.262 560.162L592.873 643.495V641.413L449.262 558.055V560.162Z" fill="#FF014F"/>
<path d="M449.262 541.64L592.873 624.972V622.891L449.262 539.559V541.64Z" fill="#FF014F"/>
<path d="M449.262 523.12L592.873 606.479V604.371L449.262 521.039V523.12Z" fill="#FF014F"/>
<path d="M449.262 504.601L592.873 587.96V585.852L449.262 502.52V504.601Z" fill="#FF014F"/>
<path d="M449.262 486.108L592.873 569.44V567.332L449.262 484V486.108Z" fill="#FF014F"/>
<path d="M449.262 467.588L592.873 550.92V548.813L449.262 465.48V467.588Z" fill="#FF014F"/>
<path d="M449.262 449.065L592.873 532.397V530.316L449.262 446.957V449.065Z" fill="#FF014F"/>
<path d="M449.262 412.019L592.873 495.351V493.27L449.262 409.938V412.019Z" fill="#FF014F"/>
<path d="M894.244 334.793L750.633 418.125L752.441 419.179L896.052 335.847L894.244 334.793Z" fill="#FF014F"/>
<path d="M910.205 344.066L766.594 427.399L768.402 428.453L912.013 345.094L910.205 344.066Z" fill="#FF014F"/>
<path d="M607.026 168.133L463.441 251.465L465.224 252.519L608.835 169.187L607.026 168.133Z" fill="#FF014F"/>
<path d="M622.99 177.379L479.379 260.711L481.187 261.765L624.798 178.433L622.99 177.379Z" fill="#FF014F"/>
<path d="M638.951 186.652L495.34 269.985L497.148 271.038L640.759 187.68L638.951 186.652Z" fill="#FF014F"/>
<path d="M654.916 195.898L511.305 279.231L513.113 280.285L656.724 196.952L654.916 195.898Z" fill="#FF014F"/>
<path d="M670.849 205.152L527.238 288.511L529.047 289.565L672.658 206.206L670.849 205.152Z" fill="#FF014F"/>
<path d="M686.81 214.418L543.199 297.75L545.008 298.804L688.619 215.472L686.81 214.418Z" fill="#FF014F"/>
<path d="M702.775 223.676L559.164 307.034L560.973 308.062L704.584 224.73L702.775 223.676Z" fill="#FF014F"/>
<path d="M718.709 232.945L575.098 316.278L576.906 317.331L720.517 233.999L718.709 232.945Z" fill="#FF014F"/>
<path d="M734.673 242.195L591.062 325.528L592.871 326.581L736.482 243.249L734.673 242.195Z" fill="#FF014F"/>
<path d="M463.439 251.457L319.828 334.789L321.637 335.843L465.221 252.511L463.439 251.457Z" fill="#FF014F"/>
<path d="M479.377 260.73L335.766 344.063L337.574 345.117L481.185 261.758L479.377 260.73Z" fill="#FF014F"/>
<path d="M495.338 269.977L351.727 353.309L353.535 354.363L497.146 271.03L495.338 269.977Z" fill="#FF014F"/>
<path d="M511.302 279.223L367.691 362.581L369.5 363.609L513.111 280.276L511.302 279.223Z" fill="#FF014F"/>
<path d="M527.236 288.496L383.625 371.828L385.434 372.882L529.045 289.55L527.236 288.496Z" fill="#FF014F"/>
<path d="M543.201 297.742L399.59 381.075L401.398 382.128L545.009 298.796L543.201 297.742Z" fill="#FF014F"/>
<path d="M559.162 307.02L415.551 390.352L417.359 391.406L560.97 308.047L559.162 307.02Z" fill="#FF014F"/>
<path d="M575.095 316.27L431.484 399.602L433.293 400.656L576.904 317.323L575.095 316.27Z" fill="#FF014F"/>
<path d="M591.06 325.52L447.449 408.878L449.258 409.932L592.869 326.573L591.06 325.52Z" fill="#FF014F"/>
<path d="M607.052 334.793L463.441 418.125L465.25 419.179L608.835 335.847L607.052 334.793Z" fill="#FF014F"/>
<path d="M622.99 344.066L479.379 427.399L481.187 428.453L624.798 345.094L622.99 344.066Z" fill="#FF014F"/>
<path d="M638.951 353.312L495.34 436.645L497.148 437.699L640.759 354.366L638.951 353.312Z" fill="#FF014F"/>
<path d="M654.916 362.559L511.305 445.917L513.113 446.971L656.724 363.612L654.916 362.559Z" fill="#FF014F"/>
<path d="M670.849 371.832L527.238 455.164L529.047 456.218L672.658 372.886L670.849 371.832Z" fill="#FF014F"/>
<path d="M686.81 381.078L543.199 464.437L545.008 465.464L688.619 382.132L686.81 381.078Z" fill="#FF014F"/>
<path d="M702.775 390.355L559.164 473.688L560.973 474.742L704.584 391.409L702.775 390.355Z" fill="#FF014F"/>
<path d="M718.709 399.605L575.098 482.964L576.906 483.992L720.517 400.659L718.709 399.605Z" fill="#FF014F"/>
<path d="M734.673 408.879L591.062 492.211L592.871 493.265L736.482 409.906L734.673 408.879Z" fill="#FF014F"/>
<path d="M768.402 58.0273L912.013 141.36L910.205 142.413L766.594 59.0812L768.402 58.0273Z" fill="#FF014F"/>
<path d="M752.441 67.3008L896.052 150.633L894.244 151.687L750.633 68.3283L752.441 67.3008Z" fill="#FF014F"/>
<path d="M305.648 659.93L449.259 743.262L447.451 744.316L303.84 660.984L305.648 659.93Z" fill="#FF014F"/>
<path d="M289.715 669.203L433.326 752.535L431.517 753.589L287.906 670.231L289.715 669.203Z" fill="#FF014F"/>
<path d="M273.75 678.449L417.361 761.782L415.552 762.835L271.941 679.503L273.75 678.449Z" fill="#FF014F"/>
<path d="M257.789 687.695L401.4 771.054L399.591 772.108L255.98 688.749L257.789 687.695Z" fill="#FF014F"/>
<path d="M241.852 696.969L385.462 780.301L383.628 781.355L240.043 698.023L241.852 696.969Z" fill="#FF014F"/>
<path d="M225.891 706.215L369.502 789.547L367.693 790.601L224.082 707.269L225.891 706.215Z" fill="#FF014F"/>
<path d="M209.926 715.492L353.537 798.824L351.728 799.878L208.117 716.546L209.926 715.492Z" fill="#FF014F"/>
<path d="M193.988 724.742L337.573 808.075L335.764 809.128L192.18 725.796L193.988 724.742Z" fill="#FF014F"/>
<path d="M178.027 734.016L321.638 817.348L319.83 818.402L176.219 735.043L178.027 734.016Z" fill="#FF014F"/>
<path d="M162.04 409.906L305.651 493.239L303.843 494.292L160.258 410.96L162.04 409.906Z" fill="#FF014F"/>
<path d="M146.105 419.18L289.716 502.512L287.908 503.566L144.297 420.234L146.105 419.18Z" fill="#FF014F"/>
<path d="M130.141 428.426L273.752 511.758L271.943 512.812L128.332 429.48L130.141 428.426Z" fill="#FF014F"/>
<path d="M114.18 437.699L257.791 521.032L255.982 522.085L112.371 438.727L114.18 437.699Z" fill="#FF014F"/>
<path d="M98.2422 446.945L241.853 530.278L240.045 531.331L96.4336 447.999L98.2422 446.945Z" fill="#FF014F"/>
<path d="M82.2812 456.191L225.892 539.55L224.084 540.604L80.4727 457.245L82.2812 456.191Z" fill="#FF014F"/>
<path d="M66.3164 465.469L209.927 548.801L208.119 549.855L64.5078 466.523L66.3164 465.469Z" fill="#FF014F"/>
<path d="M50.3789 474.719L193.99 558.077L192.181 559.105L48.5703 475.773L50.3789 474.719Z" fill="#FF014F"/>
<path d="M34.4179 483.992L178.029 567.325L176.22 568.378L32.6094 485.046L34.4179 483.992Z" fill="#FF014F"/>
<path d="M305.648 159.906L305.675 -6.78516L303.84 -5.73132L303.866 160.933L305.648 159.906Z" fill="#FF014F"/>
<path d="M289.715 169.161V2.49609L287.906 3.52359V170.215L289.715 169.161Z" fill="#FF014F"/>
<path d="M273.75 178.403V11.7383L271.941 12.7921V179.457L273.75 178.403Z" fill="#FF014F"/>
<path d="M257.789 187.675V20.9844L255.98 22.0382V188.729L257.789 187.675Z" fill="#FF014F"/>
<path d="M241.852 196.922V30.2578L240.043 31.3117V197.976L241.852 196.922Z" fill="#FF014F"/>
<path d="M225.891 206.199L225.891 -165.754L224.082 -164.7L224.082 207.252L225.891 206.199Z" fill="#FF014F"/>
<path d="M209.926 215.442V48.7773L208.117 49.8312V216.496L209.926 215.442Z" fill="#FF014F"/>
<path d="M193.988 224.718V58.0273L192.18 59.0812V225.746L193.988 224.718Z" fill="#FF014F"/>
<path d="M178.027 233.965V67.3008L176.219 68.3283V235.019L178.027 233.965Z" fill="#FF014F"/>
<path d="M305.648 326.571V159.906L303.84 160.934V327.625L305.648 326.571Z" fill="#FF014F"/>
<path d="M289.715 335.817V169.152L287.906 170.206V336.871L289.715 335.817Z" fill="#FF014F"/>
<path d="M273.75 345.093V178.402L271.941 179.456V346.147L273.75 345.093Z" fill="#FF014F"/>
<path d="M257.789 354.337V187.672L255.98 188.726V355.39L257.789 354.337Z" fill="#FF014F"/>
<path d="M241.852 363.617V196.926L240.043 197.98V364.671L241.852 363.617Z" fill="#FF014F"/>
<path d="M225.891 372.856V206.191L224.082 207.245V373.91L225.891 372.856Z" fill="#FF014F"/>
<path d="M209.926 382.14V215.449L208.117 216.503V383.194L209.926 382.14Z" fill="#FF014F"/>
<path d="M193.988 391.383V224.719L192.18 225.746V392.437L193.988 391.383Z" fill="#FF014F"/>
<path d="M178.027 400.66V233.969L176.219 235.023V401.687L178.027 400.66Z" fill="#FF014F"/>
<path d="M736.48 576.597V409.906L734.672 410.96V577.651L736.48 576.597Z" fill="#FF014F"/>
<path d="M720.519 585.844V419.18L718.711 420.234V586.898L720.519 585.844Z" fill="#FF014F"/>
<path d="M704.582 595.117V428.426L702.773 429.48V596.171L704.582 595.117Z" fill="#FF014F"/>
<path d="M688.621 604.364V437.699L686.812 438.753V605.418L688.621 604.364Z" fill="#FF014F"/>
<path d="M672.656 687.194V446.945L670.848 447.999V688.222L672.656 687.194Z" fill="#FF014F"/>
<path d="M656.719 696.445V456.223L654.91 457.25V697.499L656.719 696.445Z" fill="#FF014F"/>
<path d="M640.758 790.077V465.469L638.949 466.523V791.131L640.758 790.077Z" fill="#FF014F"/>
<path d="M624.793 641.41V474.719L622.984 475.773V642.464L624.793 641.41Z" fill="#FF014F"/>
<path d="M608.832 650.657V483.992L607.023 485.046V651.711L608.832 650.657Z" fill="#FF014F"/>
<path d="M736.484 243.246L880.095 326.578L878.287 327.632L734.676 244.3L736.484 243.246Z" fill="#FF014F"/>
<path d="M720.519 252.492L864.13 335.825L862.322 336.878L718.711 253.546L720.519 252.492Z" fill="#FF014F"/>
<path d="M704.586 261.766L848.197 345.098L846.388 346.152L702.777 262.793L704.586 261.766Z" fill="#FF014F"/>
<path d="M688.625 271.012L832.236 354.344L830.427 355.398L686.816 272.066L688.625 271.012Z" fill="#FF014F"/>
<path d="M672.66 280.285L816.271 363.617L814.463 364.671L670.852 281.313L672.66 280.285Z" fill="#FF014F"/>
<path d="M656.727 289.531L800.337 372.864L798.529 373.917L654.918 290.585L656.727 289.531Z" fill="#FF014F"/>
<path d="M640.762 298.789L784.373 382.148L782.564 383.202L638.953 299.843L640.762 298.789Z" fill="#FF014F"/>
<path d="M624.801 308.059L768.412 391.391L766.603 392.445L622.992 309.112L624.801 308.059Z" fill="#FF014F"/>
<path d="M608.863 317.309L752.448 400.667L750.639 401.695L607.055 318.362L608.863 317.309Z" fill="#FF014F"/>
<path d="M319.828 501.484V334.793L321.637 335.847V502.538L319.828 501.484Z" fill="#FF014F"/>
<path d="M335.766 510.731V344.066L337.574 345.094V511.785L335.766 510.731Z" fill="#FF014F"/>
<path d="M351.727 520.004V353.312L353.535 354.366V521.031L351.727 520.004Z" fill="#FF014F"/>
<path d="M367.691 529.25V362.559L369.5 363.612V530.303L367.691 529.25Z" fill="#FF014F"/>
<path d="M383.625 538.497V371.832L385.434 372.886V539.551L383.625 538.497Z" fill="#FF014F"/>
<path d="M399.59 547.769V381.078L401.398 382.132V548.823L399.59 547.769Z" fill="#FF014F"/>
<path d="M415.551 557.02V390.355L417.359 391.409V558.074L415.551 557.02Z" fill="#FF014F"/>
<path d="M431.484 566.296V399.605L433.293 400.659V567.35L431.484 566.296Z" fill="#FF014F"/>
<path d="M447.449 575.543V408.879L449.258 409.906V576.597L447.449 575.543Z" fill="#FF014F"/>
<path d="M607.055 1.43416V-165.23L608.863 -164.203L608.837 2.48799L607.055 1.43416Z" fill="#FF014F"/>
<path d="M622.992 10.7183V-155.973L624.801 -154.919V11.7458L622.992 10.7183Z" fill="#FF014F"/>
<path d="M638.953 19.9615V-146.703L640.762 -145.676V21.0153L638.953 19.9615Z" fill="#FF014F"/>
<path d="M654.918 29.2378V-137.453L656.727 -136.399V30.2653L654.918 29.2378Z" fill="#FF014F"/>
<path d="M670.852 38.4821V-194.785L672.66 -193.731V39.5359L670.852 38.4821Z" fill="#FF014F"/>
<path d="M686.816 47.731V-118.934L688.625 -117.88V48.7849L686.816 47.731Z" fill="#FF014F"/>
<path d="M702.777 57.0035V-109.688L704.586 -108.634V58.0573L702.777 57.0035Z" fill="#FF014F"/>
<path d="M718.711 66.2506V-100.414L720.519 -99.3602V67.3044L718.711 66.2506Z" fill="#FF014F"/>
<path d="M734.676 75.523V-91.168L736.484 -90.1141V76.5505L734.676 75.523Z" fill="#FF014F"/>
<path d="M607.023 168.128V1.4375L608.832 2.49134V169.182L607.023 168.128Z" fill="#FF014F"/>
<path d="M622.984 177.376V10.7109L624.793 11.7384V178.429L622.984 177.376Z" fill="#FF014F"/>
<path d="M638.945 186.648V19.957L640.754 21.0109V187.675L638.945 186.648Z" fill="#FF014F"/>
<path d="M654.91 195.895V29.2305L656.719 30.258V196.949L654.91 195.895Z" fill="#FF014F"/>
<path d="M670.848 205.141V38.4766L672.656 39.5304V206.195L670.848 205.141Z" fill="#FF014F"/>
<path d="M686.812 214.414V47.7227L688.621 48.7765V215.467L686.812 214.414Z" fill="#FF014F"/>
<path d="M702.773 223.665V57L704.582 58.0538V224.718L702.773 223.665Z" fill="#FF014F"/>
<path d="M718.711 232.941V66.25L720.519 67.3038V233.995L718.711 232.941Z" fill="#FF014F"/>
<path d="M734.672 242.188V75.5234L736.48 76.5509V243.242L734.672 242.188Z" fill="#FF014F"/>
<path d="M162.038 243.24L18.4531 326.573V324.465L162.038 241.133V243.24Z" fill="#FF014F"/>
<path d="M162.038 224.713L18.4531 308.045V305.964L162.038 222.605V224.713Z" fill="#FF014F"/>
<path d="M162.038 206.191L18.4531 289.523V287.442L162.038 204.109V206.191Z" fill="#FF014F"/>
<path d="M162.064 187.671L18.4531 271.03V268.922L162.038 185.59L162.064 187.671Z" fill="#FF014F"/>
<path d="M162.038 169.152L18.4531 252.51V250.403L162.038 167.07V169.152Z" fill="#FF014F"/>
<path d="M162.038 150.655L18.4531 233.987V231.879L162.038 148.547V150.655Z" fill="#FF014F"/>
<path d="M162.038 132.131L18.4531 215.463V213.356L162.038 130.023V132.131Z" fill="#FF014F"/>
<path d="M162.038 113.612L18.4531 196.944V194.863L162.038 111.504V113.612Z" fill="#FF014F"/>
<path d="M162.038 95.0921L18.4531 178.424V176.343L162.038 92.9844V95.0921Z" fill="#FF014F"/>
<path d="M449.259 893.522L305.648 976.854V974.746L449.259 891.414V893.522Z" fill="#FF014F"/>
<path d="M449.259 874.994L305.648 958.327V956.245L449.259 872.887V874.994Z" fill="#FF014F"/>
<path d="M449.259 856.475L305.648 939.807V937.726L449.259 854.367V856.475Z" fill="#FF014F"/>
<path d="M449.259 837.952L305.648 921.311V919.203L449.259 835.871V837.952Z" fill="#FF014F"/>
<path d="M449.259 819.433L305.648 902.792V900.684L449.259 817.352V819.433Z" fill="#FF014F"/>
<path d="M449.259 800.909L305.648 884.268V882.16L449.259 798.828V800.909Z" fill="#FF014F"/>
<path d="M449.259 782.412L305.648 865.745V863.637L449.259 780.305V782.412Z" fill="#FF014F"/>
<path d="M449.259 763.893L305.648 847.225V845.117L449.259 761.785V763.893Z" fill="#FF014F"/>
<path d="M449.259 745.373L305.648 828.706V826.624L449.259 743.266V745.373Z" fill="#FF014F"/>
<path d="M449.259 76.5501L305.648 159.909V157.801L449.259 74.4687V76.5501Z" fill="#FF014F"/>
<path d="M449.259 58.0266L305.648 141.385V139.278L449.259 55.9453V58.0266Z" fill="#FF014F"/>
<path d="M449.259 39.5335L305.648 122.866V120.758L449.259 37.4258V39.5335Z" fill="#FF014F"/>
<path d="M449.259 21.0139L305.648 104.346V102.239L449.259 18.9062V21.0139Z" fill="#FF014F"/>
<path d="M449.259 2.4944L305.648 85.8267V83.719L449.259 0.386719V2.4944Z" fill="#FF014F"/>
<path d="M449.259 -16.0251L305.648 67.3072V65.2258L449.259 -18.1328V-16.0251Z" fill="#FF014F"/>
<path d="M449.259 -34.5554L305.648 48.7769V46.6956L449.259 -36.6367V-34.5554Z" fill="#FF014F"/>
<path d="M449.259 -53.0749L305.648 30.2837V28.1761L449.259 -55.1563V-53.0749Z" fill="#FF014F"/>
<path d="M449.259 -71.5945L305.648 11.7642V9.65652L449.259 -73.6758V-71.5945Z" fill="#FF014F"/>
<path d="M162.042 409.909L18.457 493.242V491.16L162.042 407.828V409.909Z" fill="#FF014F"/>
<path d="M162.045 391.386L18.4598 474.745L18.4336 472.637L162.045 389.305V391.386Z" fill="#FF014F"/>
<path d="M162.042 372.893L18.457 456.225V454.117L162.042 370.785V372.893Z" fill="#FF014F"/>
<path d="M162.042 354.373L18.457 437.706V435.598L162.042 352.266V354.373Z" fill="#FF014F"/>
<path d="M162.042 335.854L18.457 419.186V417.078L162.042 333.746V335.854Z" fill="#FF014F"/>
<path d="M162.042 317.334L18.457 400.667V398.585L162.042 315.227V317.334Z" fill="#FF014F"/>
<path d="M162.042 298.811L18.457 382.143V380.062L162.042 296.703V298.811Z" fill="#FF014F"/>
<path d="M162.042 280.284L18.457 363.617V361.535L162.042 278.203V280.284Z" fill="#FF014F"/>
<path d="M162.042 261.765L18.457 345.124V343.016L162.042 259.684V261.765Z" fill="#FF014F"/>
<path d="M305.673 -6.77805L162.062 76.5543V74.4729L305.673 -8.85938V-6.77805Z" fill="#FF014F"/>
<path d="M305.65 -25.3015L162.065 58.0572L162.039 55.9495L305.65 -27.3828V-25.3015Z" fill="#FF014F"/>
<path d="M305.673 -43.821L162.062 39.5377V37.43L305.647 -45.9023L305.673 -43.821Z" fill="#FF014F"/>
<path d="M305.676 -62.3142L162.065 21.0181L162.039 18.9104L305.65 -64.4219L305.676 -62.3142Z" fill="#FF014F"/>
<path d="M305.673 -80.8337L162.062 2.49857V0.3909L305.673 -82.9414V-80.8337Z" fill="#FF014F"/>
<path d="M752.414 85.8273V233.997L750.605 235.051V84.7734L752.414 85.8273Z" fill="#FF014F"/>
<path d="M766.566 94.0156L768.375 95.0695V224.744L766.566 225.772V94.0156Z" fill="#FF014F"/>
<path d="M880.089 310.185L750.605 235.046L752.414 233.992L880.089 308.077V310.185Z" fill="#FF014F"/>
<path d="M768.375 224.719L880.087 289.556V291.664L766.566 225.773L768.375 224.719Z" fill="#FF014F"/>
<path d="M592.873 159.913L449.262 243.245V241.138L591.064 158.859L592.873 159.913Z" fill="#FF014F"/>
<path d="M576.91 150.64L449.262 224.725V222.617L575.128 149.586L576.91 150.64Z" fill="#FF014F"/>
<path d="M560.974 141.39L449.262 206.201V204.12L559.165 140.336L560.974 141.39Z" fill="#FF014F"/>
<path d="M449.262 187.676V185.595L543.202 131.059L545.011 132.112L449.262 187.676Z" fill="#FF014F"/>
<path d="M529.049 122.866L449.262 169.156V167.075L527.24 121.812L529.049 122.866Z" fill="#FF014F"/>
<path d="M449.262 150.663V148.555L511.304 112.566L513.112 113.594L449.262 150.663Z" fill="#FF014F"/>
<path d="M497.149 104.347L449.262 132.142V130.034L495.341 103.293L497.149 104.347Z" fill="#FF014F"/>
<path d="M449.262 113.622V111.514L479.378 94.0469L481.187 95.1007L449.262 113.622Z" fill="#FF014F"/>
<path d="M465.251 85.8273L449.262 95.1011V92.9934L463.442 84.7734L465.251 85.8273Z" fill="#FF014F"/>
<path d="M449.259 243.245L305.648 159.913L307.457 158.859L449.259 241.138V243.245Z" fill="#FF014F"/>
<path d="M449.258 224.725L321.609 150.64L323.418 149.586L449.258 222.617V224.725Z" fill="#FF014F"/>
<path d="M449.26 206.201L337.574 141.39L339.383 140.336L449.26 204.12V206.201Z" fill="#FF014F"/>
<path d="M449.258 187.676L353.535 132.112L355.344 131.059L449.258 185.595V187.676Z" fill="#FF014F"/>
<path d="M449.259 169.156L369.473 122.866L371.281 121.812L449.259 167.075V169.156Z" fill="#FF014F"/>
<path d="M449.262 150.663L385.438 113.594L387.246 112.566L449.262 148.555V150.663Z" fill="#FF014F"/>
<path d="M449.259 132.142L401.371 104.347L403.206 103.293L449.259 130.034V132.142Z" fill="#FF014F"/>
<path d="M449.261 113.622L417.336 95.1007L419.145 94.0469L449.261 111.514V113.622Z" fill="#FF014F"/>
<path d="M449.256 92.9934V95.1011L433.293 85.8273L435.102 84.7734L449.256 92.9934Z" fill="#FF014F"/>
<path d="M449.259 243.249L305.648 326.581V324.5L447.451 242.195L449.259 243.249Z" fill="#FF014F"/>
<path d="M433.323 233.973L305.648 308.058V305.976L431.514 232.945L433.323 233.973Z" fill="#FF014F"/>
<path d="M417.36 224.73L305.648 289.567V287.459L415.552 223.676L417.36 224.73Z" fill="#FF014F"/>
<path d="M401.398 215.472L305.648 271.035V268.928L399.589 214.418L401.398 215.472Z" fill="#FF014F"/>
<path d="M385.461 206.206L305.648 252.522V250.415L383.653 205.152L385.461 206.206Z" fill="#FF014F"/>
<path d="M305.648 233.995V231.887L367.69 195.898L369.499 196.952L305.648 233.995Z" fill="#FF014F"/>
<path d="M305.648 215.478V213.37L351.728 186.629L353.536 187.683L305.648 215.478Z" fill="#FF014F"/>
<path d="M305.648 196.954V194.873L335.791 177.379L337.6 178.433L305.648 196.954Z" fill="#FF014F"/>
<path d="M321.637 169.16L305.648 178.434V176.353L319.829 168.133L321.637 169.16Z" fill="#FF014F"/>
<path d="M319.83 501.484L321.639 502.538L162.039 595.144V593.037L319.83 501.484Z" fill="#FF014F"/>
<path d="M337.575 511.784L162.039 613.638V611.557L335.767 510.73L337.575 511.784Z" fill="#FF014F"/>
<path d="M162.039 632.159V630.077L351.729 520.004L353.538 521.031L162.039 632.159Z" fill="#FF014F"/>
<path d="M369.5 530.304L162.039 650.679V648.571L367.692 529.25L369.5 530.304Z" fill="#FF014F"/>
<path d="M162.039 669.206V667.099L383.628 538.504L385.437 539.558L162.039 669.206Z" fill="#FF014F"/>
<path d="M401.399 548.823L162.039 687.719V685.612L399.591 547.77L401.399 548.823Z" fill="#FF014F"/>
<path d="M162.039 706.251V704.143L415.553 557.027L417.362 558.081L162.039 706.251Z" fill="#FF014F"/>
<path d="M162.039 724.768V722.66L431.49 566.297L433.298 567.351L162.039 724.768Z" fill="#FF014F"/>
<path d="M162.065 743.265H162.039V741.184L447.452 575.547L449.261 576.601L162.065 743.265Z" fill="#FF014F"/>
<path d="M319.83 485.054L176.219 401.695L178.027 400.668L319.83 482.946V485.054Z" fill="#FF014F"/>
<path d="M319.828 466.533L192.18 392.448L193.988 391.395L319.828 464.426V466.533Z" fill="#FF014F"/>
<path d="M319.829 448.009L208.117 383.198L209.926 382.145L319.829 445.902V448.009Z" fill="#FF014F"/>
<path d="M319.831 429.485L224.082 373.921L225.891 372.867L319.831 427.377V429.485Z" fill="#FF014F"/>
<path d="M319.83 410.965L240.043 364.675L241.852 363.621L319.83 408.883V410.965Z" fill="#FF014F"/>
<path d="M319.831 392.444L255.98 355.401L257.789 354.348L319.831 390.363V392.444Z" fill="#FF014F"/>
<path d="M319.829 373.95L271.941 346.155L273.75 345.102L319.829 371.843V373.95Z" fill="#FF014F"/>
<path d="M319.831 355.431L287.906 336.883L289.715 335.855L319.831 353.323V355.431Z" fill="#FF014F"/>
<path d="M319.83 334.802V336.91L303.867 327.636L305.676 326.582L319.83 334.802Z" fill="#FF014F"/>
<path d="M597.984 955.528V788.863L596.176 789.891V956.582L597.984 955.528Z" fill="#FF014F"/>
<path d="M145.18 812.708V646.043L143.371 647.097V813.761L145.18 812.708Z" fill="#FF014F"/>
<path d="M544.117 75.523V-91.168L542.309 -90.1141V76.5505L544.117 75.523Z" fill="#FF014F"/>
<path d="M1.80857 308.605L1.80857 141.914L0 142.968L0 309.633L1.80857 308.605Z" fill="#FF014F"/>
<path d="M466.035 48.2808V-118.41L464.227 -117.356V49.3083L466.035 48.2808Z" fill="#FF014F"/>
</g>
<defs>
<clipPath id="clip0_1_5241">
<rect width="900" height="778" fill="white" transform="matrix(0 1 1 0 0 0)"/>
</clipPath>
</defs>
</svg>
