<svg width="121" height="41" viewBox="0 0 121 41" fill="none" xmlns="http://www.w3.org/2000/svg">
<g clip-path="url(#clip0_1_6763)">
<path d="M21.1867 30.5201C18.579 30.5183 16.0179 29.829 13.7617 28.5215L16.6348 23.5716C18.0195 24.3737 19.5911 24.797 21.1913 24.7987C22.7916 24.8005 24.3641 24.3807 25.7506 23.5816C27.137 22.7824 28.2885 21.6322 29.0892 20.2466C29.8898 18.861 30.3114 17.289 30.3114 15.6887C30.3114 14.0884 29.8898 12.5164 29.0892 11.1308C28.2885 9.74521 27.137 8.59498 25.7506 7.79585C24.3641 6.99673 22.7916 6.57692 21.1913 6.57867C19.5911 6.58043 18.0195 7.00368 16.6348 7.80585L13.7617 2.85587C15.7314 1.71533 17.9371 1.04342 20.2081 0.892164C22.4792 0.740906 24.7545 1.11436 26.858 1.98361C28.9616 2.85286 30.8368 4.19457 32.3386 5.90486C33.8403 7.61516 34.9283 9.64816 35.5183 11.8464C36.1082 14.0447 36.1843 16.3492 35.7407 18.5816C35.2971 20.814 34.3456 22.9144 32.96 24.72C31.5743 26.5257 29.7917 27.9882 27.7501 28.9943C25.7085 30.0005 23.4627 30.5232 21.1867 30.5222V30.5201Z" fill="#FF014F"/>
<path d="M15.1893 32.109C18.5234 32.109 21.2262 29.4062 21.2262 26.0721C21.2262 22.738 18.5234 20.0352 15.1893 20.0352C11.8552 20.0352 9.15234 22.738 9.15234 26.0721C9.15234 29.4062 11.8552 32.109 15.1893 32.109Z" fill="#FF014F"/>
<path d="M14.8076 40.8557C12.3123 40.8555 9.85752 40.2248 7.67118 39.0221C5.48484 37.8194 3.63786 36.0837 2.30175 33.9763C0.965643 31.8688 0.183736 29.4579 0.0286368 26.9674C-0.126462 24.477 0.350277 21.9877 1.41458 19.7307C2.47889 17.4738 4.09625 15.5224 6.11648 14.0577C8.1367 12.593 10.4943 11.6626 12.9703 11.3528C15.4463 11.0431 17.9604 11.364 20.2792 12.2858C22.598 13.2076 24.6463 14.7003 26.2338 16.6255L21.8201 20.2699C20.6466 18.8482 19.068 17.8175 17.2942 17.3151C15.5205 16.8127 13.6358 16.8624 11.8911 17.4576C10.1463 18.0528 8.62418 19.1653 7.5273 20.647C6.43042 22.1287 5.81081 23.9093 5.75093 25.7518C5.69106 27.5944 6.19376 29.4114 7.19212 30.9612C8.19049 32.511 9.63717 33.7199 11.3396 34.4272C13.0421 35.1344 14.9195 35.3064 16.7221 34.9202C18.5247 34.534 20.167 33.608 21.4303 32.2654L25.6007 36.1841C24.214 37.656 22.5416 38.8295 20.6858 39.6327C18.83 40.436 16.8298 40.8521 14.8076 40.8557Z" fill="#FF014F"/>
</g>
<path d="M51.4935 30.3555H48.7735C48.3255 30.3555 48.1015 30.1315 48.1015 29.6835V10.4515C48.1015 10.0035 48.3255 9.77947 48.7735 9.77947H56.3895C58.0535 9.77947 59.3548 10.2381 60.2935 11.1555C61.2322 12.0728 61.7015 13.3635 61.7015 15.0275V17.5235C61.7015 19.9341 60.7522 21.5341 58.8535 22.3235V22.4515L62.2775 29.5875C62.4695 30.0995 62.2882 30.3555 61.7335 30.3555H59.1415C58.7575 30.3555 58.4802 30.3128 58.3095 30.2275C58.1388 30.1421 58.0002 29.9608 57.8935 29.6835L54.6935 22.7715H52.5495C52.2935 22.7715 52.1655 22.8888 52.1655 23.1235V29.6835C52.1655 30.1315 51.9415 30.3555 51.4935 30.3555ZM52.5175 19.5075H55.6535C56.3362 19.5075 56.8375 19.3688 57.1575 19.0915C57.4775 18.7928 57.6375 18.3235 57.6375 17.6835V15.1875C57.6375 14.5261 57.4775 14.0461 57.1575 13.7475C56.8375 13.4488 56.3362 13.2995 55.6535 13.2995H52.5175C52.2828 13.2995 52.1655 13.4168 52.1655 13.6515V19.1555C52.1655 19.3901 52.2828 19.5075 52.5175 19.5075ZM77.3135 30.3555H70.2415C68.5562 30.3555 67.2548 29.9075 66.3375 29.0115C65.4202 28.1155 64.9615 26.8248 64.9615 25.1395V19.2515C64.9615 17.5661 65.4202 16.2755 66.3375 15.3795C67.2548 14.4835 68.5562 14.0355 70.2415 14.0355H72.7695C74.4548 14.0355 75.7562 14.4835 76.6735 15.3795C77.5908 16.2755 78.0495 17.5661 78.0495 19.2515V23.3155C78.0495 23.7635 77.8255 23.9875 77.3775 23.9875H69.3455C69.0895 23.9875 68.9615 24.1048 68.9615 24.3395V25.0435C68.9615 25.7048 69.1002 26.1848 69.3775 26.4835C69.6762 26.7608 70.1668 26.8995 70.8495 26.8995H77.3135C77.7615 26.8995 77.9855 27.1341 77.9855 27.6035V29.7155C77.9855 29.9501 77.9322 30.1208 77.8255 30.2275C77.7402 30.3128 77.5695 30.3555 77.3135 30.3555ZM69.3455 21.2675H73.6975C73.9322 21.2675 74.0495 21.1501 74.0495 20.9155V19.3795C74.0495 18.6968 73.9108 18.2168 73.6335 17.9395C73.3562 17.6621 72.8762 17.5235 72.1935 17.5235H70.8495C70.1668 17.5235 69.6868 17.6621 69.4095 17.9395C69.1322 18.2168 68.9935 18.6968 68.9935 19.3795V20.9155C68.9935 21.1501 69.1108 21.2675 69.3455 21.2675ZM93.126 30.3555H86.054C84.3687 30.3555 83.0673 29.9075 82.15 29.0115C81.2327 28.1155 80.774 26.8248 80.774 25.1395V19.2515C80.774 17.5661 81.2327 16.2755 82.15 15.3795C83.0673 14.4835 84.3687 14.0355 86.054 14.0355H88.582C90.2673 14.0355 91.5687 14.4835 92.486 15.3795C93.4033 16.2755 93.862 17.5661 93.862 19.2515V23.3155C93.862 23.7635 93.638 23.9875 93.19 23.9875H85.158C84.902 23.9875 84.774 24.1048 84.774 24.3395V25.0435C84.774 25.7048 84.9127 26.1848 85.19 26.4835C85.4887 26.7608 85.9793 26.8995 86.662 26.8995H93.126C93.574 26.8995 93.798 27.1341 93.798 27.6035V29.7155C93.798 29.9501 93.7447 30.1208 93.638 30.2275C93.5527 30.3128 93.382 30.3555 93.126 30.3555ZM85.158 21.2675H89.51C89.7447 21.2675 89.862 21.1501 89.862 20.9155V19.3795C89.862 18.6968 89.7233 18.2168 89.446 17.9395C89.1687 17.6621 88.6887 17.5235 88.006 17.5235H86.662C85.9793 17.5235 85.4993 17.6621 85.222 17.9395C84.9447 18.2168 84.806 18.6968 84.806 19.3795V20.9155C84.806 21.1501 84.9233 21.2675 85.158 21.2675ZM100.298 30.3555H97.5785C97.1305 30.3555 96.9065 30.1315 96.9065 29.6835V14.7075C96.9065 14.2595 97.1305 14.0355 97.5785 14.0355H100.298C100.746 14.0355 100.97 14.2595 100.97 14.7075V15.7635H101.098C101.568 14.6115 102.613 14.0355 104.234 14.0355H105.258C108.608 14.0355 110.282 15.7741 110.282 19.2515V29.6835C110.282 30.1315 110.048 30.3555 109.578 30.3555H106.89C106.442 30.3555 106.218 30.1315 106.218 29.6835V19.4435C106.218 18.7608 106.069 18.2808 105.77 18.0035C105.493 17.7048 105.013 17.5555 104.33 17.5555H103.178C101.706 17.5555 100.97 18.3661 100.97 19.9875V29.6835C100.97 30.1315 100.746 30.3555 100.298 30.3555ZM113.816 11.2835V8.49947C113.816 8.0728 114.03 7.85947 114.456 7.85947H117.24C117.667 7.85947 117.88 8.06214 117.88 8.46747V11.2835C117.88 11.7101 117.667 11.9235 117.24 11.9235H114.456C114.03 11.9235 113.816 11.7101 113.816 11.2835ZM113.816 29.6835V14.7075C113.816 14.2595 114.03 14.0355 114.456 14.0355H117.208C117.656 14.0355 117.88 14.2595 117.88 14.7075V29.6835C117.88 29.9608 117.827 30.1421 117.72 30.2275C117.635 30.3128 117.475 30.3555 117.24 30.3555H114.488C114.04 30.3555 113.816 30.1315 113.816 29.6835Z" fill="white"/>
<defs>
<clipPath id="clip0_1_6763">
<rect width="36.0215" height="40" fill="white" transform="translate(0 0.855469)"/>
</clipPath>
</defs>
</svg>
