<svg width="37" height="41" viewBox="0 0 37 41" fill="none" xmlns="http://www.w3.org/2000/svg">
<g clip-path="url(#clip0_1_6764)">
<path d="M21.1867 30.5201C18.579 30.5183 16.0179 29.829 13.7617 28.5215L16.6348 23.5716C18.0195 24.3737 19.5911 24.797 21.1913 24.7987C22.7916 24.8005 24.3641 24.3807 25.7506 23.5816C27.137 22.7824 28.2885 21.6322 29.0892 20.2466C29.8898 18.861 30.3114 17.289 30.3114 15.6887C30.3114 14.0884 29.8898 12.5164 29.0892 11.1308C28.2885 9.74521 27.137 8.59498 25.7506 7.79585C24.3641 6.99673 22.7916 6.57692 21.1913 6.57867C19.5911 6.58043 18.0195 7.00368 16.6348 7.80585L13.7617 2.85587C15.7314 1.71533 17.9371 1.04342 20.2081 0.892164C22.4792 0.740906 24.7545 1.11436 26.858 1.98361C28.9616 2.85286 30.8368 4.19457 32.3386 5.90486C33.8403 7.61516 34.9283 9.64816 35.5183 11.8464C36.1082 14.0447 36.1843 16.3492 35.7407 18.5816C35.2971 20.814 34.3456 22.9144 32.96 24.72C31.5743 26.5257 29.7917 27.9882 27.7501 28.9943C25.7085 30.0005 23.4627 30.5232 21.1867 30.5222V30.5201Z" fill="#FF014F"/>
<path d="M15.1893 32.109C18.5234 32.109 21.2262 29.4062 21.2262 26.0721C21.2262 22.738 18.5234 20.0352 15.1893 20.0352C11.8552 20.0352 9.15234 22.738 9.15234 26.0721C9.15234 29.4062 11.8552 32.109 15.1893 32.109Z" fill="#FF014F"/>
<path d="M14.8076 40.8557C12.3123 40.8555 9.85752 40.2248 7.67118 39.0221C5.48484 37.8194 3.63786 36.0837 2.30175 33.9763C0.965643 31.8688 0.183736 29.4579 0.0286368 26.9674C-0.126462 24.477 0.350277 21.9877 1.41458 19.7307C2.47889 17.4738 4.09625 15.5224 6.11648 14.0577C8.1367 12.593 10.4943 11.6626 12.9703 11.3528C15.4463 11.0431 17.9604 11.364 20.2792 12.2858C22.598 13.2076 24.6463 14.7003 26.2338 16.6255L21.8201 20.2699C20.6466 18.8482 19.068 17.8175 17.2942 17.3151C15.5205 16.8127 13.6358 16.8624 11.8911 17.4576C10.1463 18.0528 8.62418 19.1653 7.5273 20.647C6.43042 22.1287 5.81081 23.9093 5.75093 25.7518C5.69106 27.5944 6.19376 29.4114 7.19212 30.9612C8.19049 32.511 9.63717 33.7199 11.3396 34.4272C13.0421 35.1344 14.9195 35.3064 16.7221 34.9202C18.5247 34.534 20.167 33.608 21.4303 32.2654L25.6007 36.1841C24.214 37.656 22.5416 38.8295 20.6858 39.6327C18.83 40.436 16.8298 40.8521 14.8076 40.8557Z" fill="#FF014F"/>
</g>
<defs>
<clipPath id="clip0_1_6764">
<rect width="36.0215" height="40" fill="white" transform="translate(0 0.855469)"/>
</clipPath>
</defs>
</svg>
